<?xml version="1.0" encoding="UTF-8" standalone="no"?>
<svg 
    role="img" 
    xmlns="http://www.w3.org/2000/svg" 
    width="1000mm"
    height="1000mm"
    viewBox="0 0 1000 1000"
    style="max-width:1.6em; height: auto;">
    
    <path 
        id="path" 
        style="opacity:1;vector-effect:none;fill:#000000;fill-opacity:1;"
        d="M 500 0C 224 0 0 224 0 500C 0 776 224 1000 500 1000C 776 1000 1000 776 1000 500C 1000 224 776 0 500 0C 500 0 500 0 500 0M 500 50C 749 50 950 251 950 500C 950 749 749 950 500 950C 251 950 50 749 50 500C 50 251 251 50 500 50C 500 50 500 50 500 50 M 525 150C 525 150 525 475 525 475C 525 475 850 475 850 475C 850 475 850 525 850 525C 850 525 525 525 525 525C 525 525 525 850 525 850C 525 850 475 850 475 850C 475 850 475 525 475 525C 475 525 150 525 150 525C 150 525 150 475 150 475C 150 475 475 475 475 475C 475 475 475 150 475 150C 475 150 525 150 525 150"
        transform="">
    </path>    
</svg>