<?xml version="1.0" encoding="utf-8"?>
<!-- Generator: Adobe Illustrator 23.0.3, SVG Export Plug-In . SVG Version: 6.00 Build 0)  -->
<svg version="1.1" id="Layer_1" xmlns="http://www.w3.org/2000/svg" xmlns:xlink="http://www.w3.org/1999/xlink" x="0px" y="0px"
	 viewBox="0 0 512 512" style="enable-background:new 0 0 512 512;" xml:space="preserve">
<style type="text/css">
	.st0{fill:#607D8B;}
	.st1{fill:#3E606D;}
</style>
<path class="st0" d="M448,512H64c-35.3,0-64-28.7-64-64V277.3C0,265.6,9.6,256,21.4,256s21.3,9.6,21.3,21.3V448
	c0,11.8,9.6,21.3,21.3,21.3h384c11.8,0,21.3-9.6,21.3-21.3V149.3c0-11.8-9.6-21.3-21.3-21.3h-64c-11.8,0-21.3-9.6-21.3-21.3
	c0-11.8,9.5-21.3,21.3-21.3h64c35.3,0,64,28.7,64,64V448C512,483.3,483.3,512,448,512z"/>
<path class="st1" d="M176,85.3h-5.3V16c0-6.5-4-12.4-10-14.8c-6-2.5-13-1-17.5,3.8L4.5,148.9c-6,6.2-6,16,0,22.2l138.7,144
	c4.5,4.7,11.5,6.2,17.5,3.8c6.1-2.5,10-8.3,10-14.8v-69.3H196c67.1,0,127.4,37.3,157.5,97.4l0.3,0.5c2.8,5.4,8.3,8.7,14.2,8.7
	c1.2,0,2.5-0.1,3.7-0.4c7.2-1.7,12.3-8.2,12.3-15.6v-32C384,178.7,290.7,85.3,176,85.3z"/>
</svg>
